<svg xmlns="http://www.w3.org/2000/svg" id="Layer_1" data-name="Layer 1" viewBox="0 0 142.76 142.76"><defs><style>      .cls-1 {        fill: #fff;        stroke: #000;        stroke-miterlimit: 10;      }      .cls-2 {        fill: #003f59;        stroke-width: 0px;      }    </style></defs><path class="cls-1" d="M142.26,71.38c0,39.15-31.73,70.88-70.88,70.88S.5,110.53.5,71.38,32.24.5,71.38.5s70.88,31.73,70.88,70.88"></path><path class="cls-2" d="M67.11,34.41h0l-8.09,14.01h-3.48l9.76-16.9v-1.38h6.62v1.35l9.78,16.93h-3.49l-8.09-14.01v14.01h-3.01v-14.01ZM79.46,20.13h-1.27v-4.34h-2.3c-.05-.2-.09-.45-.09-.69v-1.73c0-.8-.57-1.6-1.36-1.6h-10.5c-.8.01-1.45.7-1.45,1.5s.65,1.49,1.45,1.49h8.05c.55,0,1,.39,1,.75,0,.09-.03.19-.09.28h-12.95c-.6,0-1.09.49-1.09,1.09v11.56c0,.57.47,1.04,1.05,1.04h18.28v-5.02h1.27v.49c0,.37.31.68.69.68h1.86v.2c0,.51.41.91.91.91h3.39c.5,0,.91-.4.91-.91v-.64h-.75c-.58,0-1.06-.47-1.06-1.05v-3.68c0-.58.48-1.06,1.06-1.06h.75v-.64c0-.5-.41-.91-.91-.91h-3.39c-.5,0-.91.41-.91.91v.2h-1.86c-.38,0-.69.31-.69.69v.48ZM60.88,25.63h15.26v1.92h-15.26v-1.92ZM71.1,17.76h1.23c.1,0,.18.08.18.18v1.2c0,.1-.08.18-.18.18h-1.23c-.09,0-.18-.08-.18-.18v-1.2c0-.1.09-.18.18-.18h0ZM73.24,19.51h1.22c.1,0,.18.08.18.18v1.2c0,.1-.08.18-.18.18h-1.22c-.1,0-.19-.08-.19-.18v-1.2c0-.1.09-.18.19-.18h0ZM71.14,19.51h1.23c.1,0,.18.08.18.18v1.2c0,.1-.08.18-.18.18h-1.23c-.09,0-.18-.08-.18-.18v-1.2c0-.1.09-.18.18-.18h0ZM73.19,17.76h1.22c.1,0,.18.08.18.18v1.2c0,.1-.08.18-.18.18h-1.22c-.1,0-.19-.08-.19-.18v-1.2c0-.1.09-.18.19-.18h0Z"></path><g><path class="cls-2" d="M43.54,127.17c.03-2.39,1.42-3.98,3.78-4.39.43-.07.88-.26,1.23-.52,6.32-4.64,12.63-9.29,18.94-13.94.18-.14.36-.28.6-.48-6.04-4.46-12.03-8.88-18.15-13.39.31-.04.49-.09.67-.09,1.72,0,3.44-.03,5.15.01.38,0,.81.16,1.11.39,4.65,3.4,9.29,6.82,13.92,10.26.45.34.73.34,1.19,0,4.61-3.42,9.22-6.83,13.86-10.21.36-.26.87-.42,1.32-.43,1.83-.05,3.67-.02,5.57.15-6,4.43-12,8.86-18.07,13.33,1.98,1.47,3.9,2.88,5.81,4.29,4.58,3.37,9.15,6.75,13.74,10.11.35.26.8.45,1.23.52,2.36.4,3.75,1.99,3.78,4.39h-8.46c.09-.53.11-1.08.29-1.57.19-.49.13-.74-.31-1.06-6.26-4.59-12.5-9.19-18.74-13.82-.48-.35-.77-.35-1.25,0-6.17,4.58-12.36,9.14-18.55,13.68-.52.38-.79.67-.44,1.34.21.41.16.95.23,1.43h-8.46Z"></path><path class="cls-2" d="M45.89,85.34v-29.65h51.25v29.65h-51.25ZM88.24,65.88v9.99h1.46v-3.73h1.04c.26,1.08.54,2.16.78,3.24.09.39.26.58.68.54.32-.03.65,0,1.08,0-.34-1.36-.66-2.61-.97-3.87-.05-.21-.13-.53-.03-.64,1-1.1.67-2.42.62-3.66-.04-1.08-.61-1.72-1.7-1.84-.96-.11-1.93-.02-2.97-.02ZM60.02,75.87v-3.73h1.03c.26,1.07.56,2.1.76,3.15.1.53.35.68.83.63.29-.03.58,0,.94,0-.35-1.4-.68-2.66-.98-3.92-.05-.2-.1-.51,0-.63,1.02-1.19.65-2.58.55-3.9-.07-.88-.67-1.45-1.56-1.55-1-.11-2.02-.11-3.07-.16v10.11h1.48ZM49.55,65.81v10.06c.89,0,1.73.06,2.56-.02,1.21-.12,2.04-.94,2.08-2.16.07-1.89.07-3.78,0-5.67-.05-1.24-.93-2.1-2.15-2.2-.81-.07-1.63-.01-2.5-.01ZM86.8,70.88s0,0,0,0c0-.85-.04-1.69,0-2.54.09-1.52-1.02-2.62-2.38-2.65-1.41-.03-2.42,1.09-2.44,2.69-.01,1.13-.01,2.25,0,3.38.01.79-.03,1.6.11,2.37.22,1.26,1.28,1.96,2.6,1.85,1.16-.1,2.04-1.03,2.08-2.26.03-.95,0-1.9,0-2.84ZM75.11,69.21c0-.39,0-.72,0-1.04-.04-1.42-.98-2.41-2.32-2.44-1.33-.03-2.42.94-2.46,2.32-.05,1.89-.06,3.79,0,5.69.05,1.44,1.21,2.37,2.65,2.26,1.66-.13,2.58-1.83,2-3.7h-1.44c0,.48.01.91,0,1.34-.02.57-.37.85-.89.84-.49,0-.82-.31-.82-.83-.01-1.87-.01-3.74,0-5.61,0-.51.33-.82.83-.83.53,0,.85.31.88.86.02.37.04.74.06,1.14h1.51ZM69.18,75.88v-1.52h-2.69v-2.75h1.95v-1.51h-1.94v-2.79h2.68v-1.45h-4.2v10.01h4.2ZM77.88,67.35v8.52h1.45v-8.55h1.56v-1.48h-4.64v1.51h1.63ZM57.04,75.87v-10.03h-1.37v10.03h1.37Z"></path><path class="cls-2" d="M71.38,92.58c-9.61,0-19.23,0-28.84,0-2.17,0-3.65-1.06-4.1-2.98-.35-1.51.1-2.79,1.27-3.78.39-.33.56-.64.56-1.16-.01-9.43-.01-18.87,0-28.3,0-.51-.16-.83-.56-1.15-1.42-1.11-1.79-3.18-.9-4.79.9-1.62,2.86-2.38,4.62-1.79,1.72.57,2.8,2.3,2.59,4.06-.13,1.11-.63,1.96-1.48,2.67-.21.18-.39.54-.39.82-.02,9.56-.02,19.12,0,28.68,0,.28.19.62.4.81.78.68,1.31,1.47,1.46,2.53.03.2.34.37.56.52.09.06.25.01.38.01,16.28,0,32.56,0,48.84.01.64,0,.85-.15,1.03-.83.2-.77.76-1.47,1.28-2.11.29-.35.52-.61.52-1.1-.02-9.46-.02-18.92,0-28.37,0-.48-.13-.79-.52-1.1-1.74-1.39-1.9-3.96-.38-5.58,1.54-1.64,4.17-1.64,5.68.01,1.51,1.66,1.32,4.19-.39,5.61-.27.22-.5.66-.5,1-.03,9.48-.03,18.97,0,28.45,0,.34.23.78.49,1.01,1.2,1.04,1.72,2.66,1.25,4.16-.49,1.54-1.88,2.64-3.49,2.66-2.18.04-4.36.02-6.54.02-7.61,0-15.23,0-22.84,0Z"></path><path class="cls-2" d="M89.73,70.8v-3.59c.6.18,1.48.24,1.56.51.21.76.22,1.66.02,2.42-.08.31-.94.41-1.58.66Z"></path><path class="cls-2" d="M60.04,70.77v-3.58c.61.2,1.49.28,1.56.56.2.76.2,1.66-.01,2.42-.08.3-.94.38-1.55.6Z"></path><path class="cls-2" d="M51.01,67.4c1.56-.15,1.76.04,1.76,1.53,0,1.3,0,2.6,0,3.9,0,1.5-.18,1.66-1.76,1.53v-6.97Z"></path><path class="cls-2" d="M85.24,70.83c0,.87,0,1.74,0,2.61,0,.6-.24,1.02-.88,1.01-.59,0-.86-.4-.86-.96,0-1.77,0-3.53,0-5.3,0-.56.26-.97.85-.98.64-.01.89.41.89,1.01,0,.87,0,1.74,0,2.61Z"></path></g></svg>