<svg xmlns="http://www.w3.org/2000/svg" id="Layer_1" data-name="Layer 1" viewBox="0 0 142.76 142.76"><defs><style>      .cls-1 {        fill: #fff;        stroke: #000;        stroke-miterlimit: 10;      }      .cls-2 {        fill: #003f59;        stroke-width: 0px;      }    </style></defs><path class="cls-1" d="M142.26,71.38c0,39.15-31.73,70.88-70.88,70.88S.5,110.53.5,71.38,32.23.5,71.38.5s70.88,31.74,70.88,70.88"></path><path class="cls-2" d="M94.17,61.08s-10.91-7.5-27.94-7.76c0-7.38-1-21.07-1-23.03,0-2.7-.9-4.53-3.53-4.53s-3.26,2.6-3.26,4.77-1.01,40.96-1.01,42.54c0,6.19,0,6.7-2.75,6.7v-18.98s-6.63,3.01-6.63,7.35v12.09c0,4.53,1.65,10.66,9.39,15.81l2.73,1.75c.87.59,1.4,1.57,1.4,2.62v14.13h0c0,.23.18.41.41.41h27.11c.23,0,.4-.18.4-.4h0v-19.28c-.04-4.19,6.47-12.3,6.47-20.95v-10.66c0-.99-.63-1.82-1.8-2.59"></path><path class="cls-2" d="M61.74,41.03c-5.69,0-10.31-4.63-10.31-10.31s4.63-10.31,10.31-10.31,10.31,4.62,10.31,10.31-4.63,10.31-10.31,10.31M61.74,21.41c-5.13,0-9.31,4.18-9.31,9.31s4.18,9.31,9.31,9.31,9.31-4.18,9.31-9.31-4.18-9.31-9.31-9.31"></path><path class="cls-2" d="M61.74,46.67c-8.8,0-15.95-7.16-15.95-15.95s7.16-15.95,15.95-15.95,15.95,7.15,15.95,15.95-7.16,15.95-15.95,15.95M61.74,16.78c-7.69,0-13.95,6.26-13.95,13.95s6.26,13.95,13.95,13.95,13.95-6.26,13.95-13.95-6.26-13.95-13.95-13.95"></path></svg>