<svg xmlns="http://www.w3.org/2000/svg" id="Layer_1" data-name="Layer 1" viewBox="0 0 142.75 142.76"><defs><style>      .cls-1 {        fill: #fff;        stroke: #000;        stroke-miterlimit: 10;      }      .cls-2 {        fill: #003f59;        stroke-width: 0px;      }    </style></defs><path class="cls-1" d="M142.25,71.38c0,14.88-4.58,28.7-12.43,40.1-7.4,10.78-17.69,19.4-29.76,24.74-8.77,3.89-18.48,6.04-28.68,6.04C32.23,142.26.5,110.53.5,71.38S32.23.5,71.38.5s70.87,31.74,70.87,70.88"></path><path class="cls-2" d="M71.38,58.94c-7.97,0-14.42,6.46-14.42,14.42,0,2.62.74,5.06,1.92,7.2,1.96,2.97,3.92,4.62,5.43,8.2.63,1.49,1.28,1.95,2.98,1.95h8.18c1.71,0,2.41-.44,2.99-1.95,1.25-3.24,3.05-4.8,5.42-8.2,1.19-2.14,1.92-4.58,1.92-7.2,0-7.97-6.46-14.42-14.42-14.42"></path><path class="cls-2" d="M66.22,93.04h10.31c.43,0,.77.35.77.77v6.7c0,.43-.35.78-.78.78h-10.3c-.43,0-.77-.35-.77-.77v-6.7c0-.43.35-.77.77-.77Z"></path><path class="cls-2" d="M67.51,103.61h7.73c0,1.55-2.06,2.58-3.87,2.58s-3.87-1.03-3.87-2.58"></path><path class="cls-2" d="M102.67,75.63h-8.3c-1.29,0-2.34-1.04-2.34-2.33s1.05-2.33,2.34-2.33h8.3c1.29,0,2.33,1.04,2.33,2.33s-1.04,2.33-2.33,2.33"></path><path class="cls-2" d="M48.39,75.63h-8.3c-1.29,0-2.33-1.04-2.33-2.33s1.04-2.33,2.33-2.33h8.3c1.29,0,2.33,1.04,2.33,2.33s-1.04,2.33-2.33,2.33"></path><path class="cls-2" d="M87.63,59.37c-.6,0-1.19-.23-1.65-.68-.91-.91-.91-2.38,0-3.29l8.07-8.07c.91-.91,2.39-.91,3.3,0,.91.91.91,2.39,0,3.3l-8.07,8.07c-.45.46-1.05.68-1.65.68"></path><path class="cls-2" d="M55.12,59.37c-.6,0-1.2-.23-1.65-.68l-8.07-8.07c-.91-.91-.91-2.39,0-3.3.91-.91,2.39-.91,3.3,0l8.07,8.07c.91.91.91,2.38,0,3.29-.45.46-1.05.68-1.65.68"></path><path class="cls-2" d="M71.38,52.64c-1.29,0-2.33-1.04-2.33-2.33v-11.42c0-1.29,1.05-2.33,2.33-2.33s2.34,1.04,2.34,2.33v11.42c0,1.29-1.05,2.33-2.34,2.33"></path></svg>