<svg xmlns="http://www.w3.org/2000/svg" id="Layer_1" data-name="Layer 1" viewBox="0 0 142.76 142.76"><defs><style>      .cls-1 {        fill: #fff;        stroke: #000;        stroke-miterlimit: 10;      }      .cls-2 {        fill: #003f59;        stroke-width: 0px;      }    </style></defs><path class="cls-1" d="M142.26,71.38c0,39.15-31.73,70.88-70.88,70.88S.5,110.53.5,71.38,32.24.5,71.38.5s70.88,31.73,70.88,70.88"></path><path class="cls-2" d="M88.15,33.94h-33.55c-3.35,0-6.08,2.77-6.08,6.18v64.77c0,3.42,2.72,6.18,6.08,6.18h33.55c3.35,0,6.08-2.77,6.08-6.18V40.12c0-3.42-2.72-6.18-6.08-6.18M71.39,107.81c-1.64,0-2.96-1.32-2.96-2.96s1.33-2.96,2.96-2.96,2.96,1.32,2.96,2.96-1.33,2.96-2.96,2.96M90.48,99.42h-38.2v-60.31h38.2v60.31Z"></path></svg>