<svg xmlns="http://www.w3.org/2000/svg" id="Layer_1" data-name="Layer 1" viewBox="0 0 142.76 142.76"><defs><style>      .cls-1 {        fill: #fff;        stroke: #000;        stroke-miterlimit: 10;      }      .cls-2 {        fill: #003f59;        stroke-width: 0px;      }    </style></defs><path class="cls-1" d="M142.26,71.38c0,39.15-31.73,70.88-70.88,70.88S.5,110.53.5,71.38,32.23.5,71.38.5s70.88,31.73,70.88,70.88"></path><g><path class="cls-2" d="M89.99,45.45v50.75h-37.86v-50.75h37.86ZM83.51,53.6c-.3,0-.54,0-.78,0-2.63,0-5.26-.02-7.9.02-.63,0-.89-.19-1.07-.78-.39-1.28-.87-2.53-1.31-3.79-.3-.84-.77-1.3-1.36-1.27-.8.04-1.14.61-1.36,1.28-.03.08-.06.17-.09.25-.41,1.18-.86,2.35-1.23,3.54-.18.57-.44.79-1.07.78-2.63-.04-5.26-.02-7.9-.02-.24,0-.48,0-.75,0v17.19h24.81v-17.19Z"></path><path class="cls-2" d="M108.71,108.82c-.62-.54-1.17-1.02-1.72-1.5-3.81-3.37-7.61-6.75-11.42-10.12-.38-.33-.56-.67-.56-1.2.01-16.71.01-33.42,0-50.14,0-.52.17-.85.57-1.18,4.19-3.41,8.35-6.84,12.53-10.26.17-.14.34-.26.6-.46v74.84Z"></path><path class="cls-2" d="M34.05,33.94c1.2.99,2.3,1.89,3.4,2.79,3.28,2.69,6.56,5.37,9.82,8.08.25.21.46.62.46.94.02,16.8.02,33.6,0,50.4,0,.29-.14.67-.35.86-4.31,3.85-8.63,7.68-12.96,11.51-.09.08-.2.15-.37.27V33.94Z"></path><path class="cls-2" d="M81.56,55.33v13.84h-20.72v-13.84h20.72ZM79.41,57.5h-16.42v9.5h16.42v-9.5Z"></path></g></svg>