<svg xmlns="http://www.w3.org/2000/svg" id="Layer_1" data-name="Layer 1" viewBox="0 0 142.76 142.76"><defs><style>      .cls-1 {        fill: #fff;        stroke: #000;        stroke-miterlimit: 10;      }      .cls-2 {        fill: #003f59;        stroke-width: 0px;      }    </style></defs><path class="cls-1" d="M142.26,71.38c0,7.46-1.15,14.66-3.29,21.4-6.93,21.9-24.21,39.19-46.09,46.15-6.78,2.17-14,3.33-21.5,3.33C32.24,142.26.5,110.53.5,71.38S32.24.5,71.38.5s70.88,31.74,70.88,70.88"></path><g><path class="cls-2" d="M56.4,112.52c-.17-7.38,3.17-12.11,10.6-13.68-3.91-5.5-4.06-9.28-.6-12.38,3.05-2.72,7.39-2.73,10.42-.01,3.49,3.12,3.34,6.9-.59,12.39,7.43,1.57,10.75,6.32,10.6,13.68h-30.43Z"></path><path class="cls-2" d="M105.17,100.2c-1.87-1.37-2.06-2.68-1.31-4.66,5.46-14.38,10.77-28.83,16.12-43.25.25-.68.49-1.37.8-2.25-3.38-.55-6.26-1.85-8.07-4.96-12.98,10.28-25.81,20.44-38.93,30.83,4.11,3.27,8.1,6.44,12.22,9.73-.56.77-1.06,1.44-1.67,2.26-4.34-3.43-8.53-6.74-12.84-10.15-4.2,3.31-8.34,6.57-12.69,10-.58-.73-1.09-1.38-1.72-2.18,4.04-3.22,7.97-6.36,12.1-9.65-13.08-10.36-25.95-20.55-38.24-30.29-3,1.79-5.63,3.36-8.53,5.09,1.29,3.48,2.75,7.44,4.22,11.4,4.14,11.12,8.24,22.27,12.47,33.35.74,1.94.82,3.45-1.11,4.97-.34-.8-.68-1.54-.97-2.31-6.01-16.14-11.91-32.32-18.12-48.38-1.35-3.49-3.79-6.57-5.81-9.79-1.83-2.92-1.67-5.19,1.09-7.27,1.42-1.06,3.19-1.84,4.92-2.26,2.13-.52,4.1.11,5.23,2.26,3.47,6.58,8.82,11.34,14.67,15.79,10.39,7.93,20.56,16.15,30.76,24.33,1.37,1.1,2.18,1.01,3.51-.05,12.51-9.99,25.18-19.78,37.56-29.93,2.8-2.3,4.75-5.69,6.84-8.76,3.34-4.89,9.62-4.89,12.57.32.67,1.19.89,3.52.18,4.45-7.44,9.74-10.16,21.54-14.51,32.6-3.72,9.48-7.14,19.07-10.74,28.76ZM22.49,47.14c2.02-.19,3.82-1.06,5.01-2.89.71-1.1.31-1.78-.99-1.93-1.74-.21-4.54,1.22-5.42,2.77-.75,1.32-.32,2.02,1.4,2.05ZM117.31,41.92c-.98.49-1.73.63-2.01,1.08-.2.32.06,1.31.4,1.52,1.56.96,3.19,1.82,4.86,2.56.37.16,1.39-.21,1.47-.51.14-.52-.02-1.43-.41-1.73-1.38-1.09-2.91-1.98-4.32-2.91Z"></path><path class="cls-2" d="M47.05,96.98c-2.52-5.24-2.45-7.6.26-9.82,2.19-1.8,5.23-1.88,7.53-.2,2.95,2.15,3.11,4.35.7,9.94,1.41.66,2.83,1.33,3.86,1.81-1.9,3.03-3.7,5.88-5.84,9.28-3.95,0-8.7.04-13.44-.08-.36,0-1.02-1.13-.99-1.7.24-4.18,2.22-7.18,6.27-8.66.28-.1.56-.18.83-.28.27-.09.53-.2.81-.3Z"></path><path class="cls-2" d="M87.73,96.89c-2.47-5.19-2.32-7.65.54-9.84,2.39-1.83,5.64-1.71,7.88.3,2.67,2.4,2.69,4.96-.02,9.58.74.28,1.47.53,2.18.81,3.57,1.42,5.98,4.97,5.81,8.76-.02.52-.84,1.41-1.31,1.43-3.81.12-7.63.07-11.44.07-.8,0-1.6,0-1.74,0-2.08-3.33-3.9-6.25-5.8-9.3,1.01-.47,2.38-1.11,3.9-1.82Z"></path><path class="cls-2" d="M62.08,97.36c-1.01-.52-2.02-1.04-3.03-1.55-.02-.2-.04-.4-.06-.6.73-.19,1.61-.72,2.16-.48.65.28,1.01,1.22,1.49,1.88-.19.25-.38.51-.57.76Z"></path><path class="cls-2" d="M84.42,95.64c-1.18.64-2.22,1.2-3.57,1.93.47-3.3,1.12-3.61,3.57-1.93Z"></path></g><g><path class="cls-2" d="M100.29,18.58c-.82,1.73-2.16,2.86-3.96,3.49-1.05.37-2.08.82-3.14,1.18-.66.22-.89.56-.9,1.29-.08,4.55-.21,9.09-.34,13.63-.05,1.85-.33,2.19-2.3,2.92-1.44-4.68-2.88-9.36-4.34-14.09-2.18,1.05-4.3,2.05-6.39,3.09-.24.12-.46.5-.5.8-.26,1.62-.44,3.25-.69,4.87-.19,1.24-.46,1.51-1.92,1.97-.54-1.96-1.09-3.92-1.61-5.8-1.08.17-2.09.32-3.1.47l-.26-.42c.7-.75,1.4-1.51,2.15-2.32-1.26-1.48-2.56-3.01-3.92-4.61.87-.65,1.63-1.09,2.69-.5,1.43.8,2.91,1.51,4.39,2.21.3.14.78.22,1.04.08,2.05-1.13,4.06-2.32,6.17-3.53-3.11-3.86-6.17-7.66-9.31-11.55.83-.42,1.55-.79,2.28-1.15.07,0,.14,0,.21,0,.1.09.18.2.29.27,4.19,2.7,8.39,5.39,12.56,8.13.59.39,1.01.34,1.6.05,1.79-.86,3.57-1.73,5.43-2.43,1.34-.5,2.75-.51,3.86.69v1.26Z"></path><path class="cls-2" d="M61.41,44.82c1.08-.61,2.14-1.26,3.26-1.78.26-.12.72.28,1.08.28,2.31.03,4.61.01,7.2.01v-4.44c2.33.96,1.52,2.83,1.76,4.45,2.36,0,4.7.02,7.03-.03.27,0,.61-.39.79-.68,1.32-2.22,2.19-4.59,2.44-7.18.09-.01.18-.03.27-.04.24,1.31.8,2.65.65,3.91-.16,1.33-.98,2.58-1.58,4.02.54,0,1.04-.04,1.54,0,1.14.1,2.27.39,3.4.33,1.06-.05,2.1-.45,3.14-.69-2.97,5.91-7.78,9.87-14.45,11.18-7.84,1.55-14.53-.82-20.06-6.82.66-.51,1.23-.94,1.86-1.42,2.08,2.35,4.52,4.08,7.37,5.16,1.1.41,2.25.69,3.38,1.03.1-.14.21-.28.31-.42-.26-.14-.58-.22-.78-.42-1.64-1.72-3.33-3.4-4.85-5.22-.63-.76-1.2-1.15-2.17-1.03-.5.07-1.02.01-1.52.01-.02-.07-.04-.14-.06-.22ZM88.44,45.03c-1.15,0-2.09.1-3-.02-1.65-.22-2.71.37-3.73,1.73-1.41,1.88-3.16,3.49-4.86,5.3,4.71-.88,8.49-3.13,11.59-7.01ZM74.72,45.07v6.22c2.31-1.9,4.31-3.86,6.14-6.22h-6.14ZM72.48,51.25c.1-.06.21-.12.31-.18v-5.95h-6.01l-.15.23c1.95,1.97,3.9,3.94,5.85,5.91Z"></path><path class="cls-2" d="M69.33,29.32c-1.75,4.07-1.06,5.41,2.82,5.71.6,1.17.59,1.15-.59,1.68-5.2,2.32-10.42,4.63-14.95,8.17-.84.66-1.6,1.48-2.21,2.35-.89,1.28-.66,2.52.77,3.14,1.77.77,3.69,1.21,5.55,1.79.25.08.52.12.89.2-2.58,1.1-6.63.89-8.91-.4-2.4-1.36-3.37-3.86-2.52-6.67.91-2.99,2.86-5.26,5.24-7.17,4.18-3.36,8.77-6.1,13.47-8.66.09-.05.19-.06.43-.14Z"></path><path class="cls-2" d="M74.55,23.1c-1.68-.56-1.88-1.83-1.71-3.36.1-.91.02-1.85.02-2.86-2.32,1.34-5.4,5.08-6.57,7.53-.39.37-.86.68-1.14,1.12-.49.76-.98,1.56-1.23,2.42-.41,1.38-1.32,2.14-2.95,2.78.84-2.15,1.58-4.05,2.37-6.06-1.69,0-3.45-.02-5.21.02-.19,0-.43.31-.56.53-1.22,2-2.1,5.17-2.17,7.82h2.17c-1.57,1.18-2.89,2.18-4.21,3.17-.11,0-.22-.02-.34-.03,0-1.12-.06-2.24,0-3.36.63-9.64,7.43-17.32,16.9-19.18,1.32-.26,2.24-.16,3.2,1.06,1.1,1.41,1.73,2.76,1.54,4.55-.14,1.27-.09,2.56-.12,3.84h0ZM70.74,15.83c-4.68.88-8.54,3.11-11.67,7.04,1.93,0,3.63,0,5.33-.01.18,0,.39-.15.52-.29,1.94-2.23,3.86-4.46,5.83-6.74Z"></path><path class="cls-2" d="M80.53,34.8c.1-.64.18-1.15.28-1.73,1.03,0,2.04-.04,3.05.01,1.13.06.65,1.08,1.07,1.72h-4.4Z"></path><path class="cls-2" d="M74.55,23.1c1.23-.1,2.46-.19,3.92-.31-1.38,1.33-1.57,1.36-2.96.68-.31-.15-.64-.25-.96-.37,0,0,0,0,0,0Z"></path></g></svg>